<?xml version="1.0" encoding="UTF-8" standalone="no" ?>
<!DOCTYPE svg PUBLIC "-//W3C//DTD SVG 1.1//EN" "http://www.w3.org/Graphics/SVG/1.1/DTD/svg11.dtd">
<svg xmlns="http://www.w3.org/2000/svg" xmlns:xlink="http://www.w3.org/1999/xlink" version="1.1" width="640" height="640" viewBox="0 0 640 640" xml:space="preserve">
<desc>Created with Fabric.js 4.6.0</desc>
<defs>
</defs>
<g transform="matrix(1.72 0 0 1.72 178.77 176.5)" id="mXT6kWR7I4uI32XsyuXO8"  >
<path style="stroke: rgb(215,80,40); stroke-width: 1; stroke-dasharray: none; stroke-linecap: butt; stroke-dashoffset: 0; stroke-linejoin: miter; stroke-miterlimit: 4; fill: rgb(255,255,255); fill-opacity: 0; fill-rule: nonzero; opacity: 1;" vector-effect="non-scaling-stroke"  transform=" translate(0, 0)" d="M 0 0" stroke-linecap="round" />
</g>
<g transform="matrix(-3.19 0 0 -3.21 317.51 232.52)" id="7v_VxHsU2N-DFGiqYkEnZ"  >
<path style="stroke: none; stroke-width: 1; stroke-dasharray: none; stroke-linecap: butt; stroke-dashoffset: 0; stroke-linejoin: miter; stroke-miterlimit: 4; fill: rgb(215,80,40); fill-rule: nonzero; opacity: 1;" vector-effect="non-scaling-stroke"  transform=" translate(0, 0)" d="M 20 -2.32401 L 22.207819999999998 2.0916400000000004 L 22.207819999999998 2.0916400000000004 C 26.025039999999997 9.726090000000001 25.596559999999997 18.7783 21.07502 26.023320000000002 C 16.55348 33.26834 8.581799999999998 37.67599 0 37.67599 L 0 37.67599 L 0 37.67599 L 0 37.67599 C -8.5818 37.67599 -16.55348 33.268339999999995 -21.07502 26.02332 C -25.596559999999997 18.778299999999998 -26.02505 9.72608 -22.207819999999998 2.091639999999998 L -20 -2.324010000000002 L -3.3577399999999997 -35.60853 L -3.3577399999999997 -35.60853 C -2.72449 -36.87504 -1.4236599999999997 -37.67599 4.440892098500626e-16 -37.67599 C 1.4236700000000004 -37.67599 2.7244900000000003 -36.87504 3.3577400000000006 -35.60853 z" stroke-linecap="round" />
</g>
<g transform="matrix(2.72 0 0 2.72 297.26 427.94)" id="4WBxtOLdjgooqqQnXJLxb"  >
<g style="" vector-effect="non-scaling-stroke"   >
		<g transform="matrix(1 0 0 1 0 -12.4)" id="FLEDR-iCUiVuJRxZfAilX"  >
<path style="stroke: none; stroke-width: 1; stroke-dasharray: none; stroke-linecap: butt; stroke-dashoffset: 0; stroke-linejoin: miter; stroke-miterlimit: 4; fill: rgb(179,181,179); fill-rule: nonzero; opacity: 1;" vector-effect="non-scaling-stroke"  transform=" translate(-40, -27.59)" d="M 77.6 16.2 C 77.6 16.2 17.799999999999997 16.2 17.799999999999997 16.2 L 16.099999999999998 8.7 C 15.899999999999999 7.699999999999999 15.099999999999998 6.999999999999999 14.099999999999998 6.799999999999999 L 2.8 5 C 1.5 4.8 0.2 5.7 0 7 C -0.2 8.3 0.7 9.6 2 9.8 L 11.7 11.3 L 20 48.3 C 20.3 49.4 21.2 50.199999999999996 22.4 50.199999999999996 L 72.8 50.199999999999996 C 74 50.199999999999996 75 49.3 75.2 48.199999999999996 L 80 19 C 80.1 18.3 79.9 17.6 79.5 17 C 79 16.5 78.3 16.2 77.6 16.2 z" stroke-linecap="round" />
</g>
		<g transform="matrix(1 0 0 1 8.6 25.21)" id="j4yyahDAEGW2q26P3VbEX"  >
<path style="stroke: none; stroke-width: 1; stroke-dasharray: none; stroke-linecap: butt; stroke-dashoffset: 0; stroke-linejoin: miter; stroke-miterlimit: 4; fill: rgb(179,181,179); fill-rule: nonzero; opacity: 1;" vector-effect="non-scaling-stroke"  transform=" translate(-48.6, -65.2)" d="M 63.7 55.4 C 58.300000000000004 55.4 53.900000000000006 59.8 53.900000000000006 65.2 C 53.900000000000006 70.60000000000001 58.300000000000004 75 63.7 75 C 69.1 75 73.5 70.6 73.5 65.2 C 73.4 59.8 69.1 55.4 63.7 55.4 z M 33.5 55.4 C 28.1 55.4 23.7 59.8 23.7 65.2 C 23.7 70.60000000000001 28.1 75 33.5 75 C 38.9 75 43.3 70.6 43.3 65.2 C 43.3 59.80000000000001 38.9 55.4 33.5 55.4 z" stroke-linecap="round" />
</g>
		<g transform="matrix(1 0 0 1 8.6 25.21)" id="uSzanPnfW2a2xk3xqNhdm"  >
<path style="stroke: none; stroke-width: 1; stroke-dasharray: none; stroke-linecap: butt; stroke-dashoffset: 0; stroke-linejoin: miter; stroke-miterlimit: 4; fill: rgb(255,255,255); fill-rule: nonzero; opacity: 1;" vector-effect="non-scaling-stroke"  transform=" translate(-48.6, -65.2)" d="M 38.4 65.2 C 38.4 67.9 36.199999999999996 70.10000000000001 33.5 70.10000000000001 C 30.800000000000004 70.10000000000001 28.6 67.9 28.6 65.2 C 28.6 62.5 30.8 60.300000000000004 33.5 60.300000000000004 C 36.2 60.300000000000004 38.4 62.5 38.4 65.2 z M 63.7 60.3 C 61 60.3 58.800000000000004 62.5 58.800000000000004 65.2 C 58.800000000000004 67.9 61.00000000000001 70.10000000000001 63.7 70.10000000000001 C 66.4 70.10000000000001 68.60000000000001 67.9 68.60000000000001 65.2 C 68.6 62.5 66.4 60.3 63.7 60.3 z" stroke-linecap="round" />
</g>
		<g transform="matrix(1 0 0 1 6.8 -6.84)" id="sphasuHE5-DfJyjS5JTio"  >
<path style="stroke: none; stroke-width: 1; stroke-dasharray: none; stroke-linecap: butt; stroke-dashoffset: 0; stroke-linejoin: miter; stroke-miterlimit: 4; fill: rgb(255,255,255); fill-rule: nonzero; opacity: 1;" vector-effect="non-scaling-stroke"  transform=" translate(-46.8, -33.15)" d="M 31.4 34.5 L 33 45.3 L 24.4 45.3 L 22 34.5 L 31.4 34.5 z M 36.2 45.3 L 45.800000000000004 45.3 L 45.800000000000004 34.5 L 34.7 34.5 L 36.2 45.3 z M 34.2 31.3 L 45.900000000000006 31.3 L 45.900000000000006 21 L 32.7 21 L 34.2 31.3 z M 29.4 21 L 18.9 21 L 21.2 31.2 L 30.9 31.2 L 29.4 21 z M 61.7 45.3 L 70.8 45.3 L 72.6 34.5 L 63.39999999999999 34.5 L 61.7 45.3 z M 63.7 31.3 L 73 31.3 L 74.7 21 L 65.2 21 L 63.7 31.3 z M 49.1 21 L 49.1 31.2 L 49.1 31.2 L 60.400000000000006 31.2 L 61.9 21 C 61.9 21 49.1 21 49.1 21 z M 49.1 45.3 L 58.3 45.3 L 60 34.5 L 49.1 34.5 L 49.1 45.3 z" stroke-linecap="round" />
</g>
</g>
</g>
<g transform="matrix(2.26 0 0 2.26 317.51 191.11)" id="Qm1VaBKf_BSpSyXojoQcY"  >
<path style="stroke: rgb(215,80,40); stroke-width: 0; stroke-dasharray: none; stroke-linecap: butt; stroke-dashoffset: 0; stroke-linejoin: miter; stroke-miterlimit: 4; fill: rgb(255,175,90); fill-rule: nonzero; opacity: 1;" vector-effect="non-scaling-stroke"  transform=" translate(0, 0)" d="M 0 -24.39024 C 13.46341 -24.39024 24.39024 -13.463409999999998 24.39024 0 C 24.39024 13.46341 13.463409999999998 24.39024 0 24.39024 C -13.46341 24.39024 -24.39024 13.463409999999998 -24.39024 0 C -24.39024 -13.46341 -13.463409999999998 -24.39024 0 -24.39024 z" stroke-linecap="round" />
</g>
<g transform="matrix(1.09 0 0 1.09 279.75 496.25)" id="m5SCarzgckjg1TC4PSlrp"  >
<path style="stroke: rgb(215,80,40); stroke-width: 2; stroke-dasharray: none; stroke-linecap: butt; stroke-dashoffset: 0; stroke-linejoin: miter; stroke-miterlimit: 4; fill: rgb(215,80,40); fill-rule: nonzero; opacity: 1;" vector-effect="non-scaling-stroke"  transform=" translate(0, 0)" d="M 0 -24.39024 C 13.46341 -24.39024 24.39024 -13.463409999999998 24.39024 0 C 24.39024 13.46341 13.463409999999998 24.39024 0 24.39024 C -13.46341 24.39024 -24.39024 13.463409999999998 -24.39024 0 C -24.39024 -13.46341 -13.463409999999998 -24.39024 0 -24.39024 z" stroke-linecap="round" />
</g>
<g transform="matrix(1.09 0 0 1.09 361.7 496.25)" id="TQ-DubsK3_JHKFyV-wSxR"  >
<path style="stroke: rgb(215,80,40); stroke-width: 2; stroke-dasharray: none; stroke-linecap: butt; stroke-dashoffset: 0; stroke-linejoin: miter; stroke-miterlimit: 4; fill: rgb(215,80,40); fill-rule: nonzero; opacity: 1;" vector-effect="non-scaling-stroke"  transform=" translate(0, 0)" d="M 0 -24.39024 C 13.46341 -24.39024 24.39024 -13.463409999999998 24.39024 0 C 24.39024 13.46341 13.463409999999998 24.39024 0 24.39024 C -13.46341 24.39024 -24.39024 13.463409999999998 -24.39024 0 C -24.39024 -13.46341 -13.463409999999998 -24.39024 0 -24.39024 z" stroke-linecap="round" />
</g>
<g transform="matrix(0.57 0 0 0.57 279.75 496.25)" id="eX6NPd_pbPpUNLnfs9oOz"  >
<path style="stroke: rgb(215,80,40); stroke-width: 0; stroke-dasharray: none; stroke-linecap: butt; stroke-dashoffset: 0; stroke-linejoin: miter; stroke-miterlimit: 4; fill: rgb(255,175,90); fill-rule: nonzero; opacity: 1;" vector-effect="non-scaling-stroke"  transform=" translate(0, 0)" d="M 0 -24.39024 C 13.46341 -24.39024 24.39024 -13.463409999999998 24.39024 0 C 24.39024 13.46341 13.463409999999998 24.39024 0 24.39024 C -13.46341 24.39024 -24.39024 13.463409999999998 -24.39024 0 C -24.39024 -13.46341 -13.463409999999998 -24.39024 0 -24.39024 z" stroke-linecap="round" />
</g>
<g transform="matrix(0.57 0 0 0.57 361.7 496.18)" id="te8LfMOfD_PKwYy8BpDnr"  >
<path style="stroke: rgb(215,80,40); stroke-width: 0; stroke-dasharray: none; stroke-linecap: butt; stroke-dashoffset: 0; stroke-linejoin: miter; stroke-miterlimit: 4; fill: rgb(255,175,90); fill-rule: nonzero; opacity: 1;" vector-effect="non-scaling-stroke"  transform=" translate(0, 0)" d="M 0 -24.39024 C 13.46341 -24.39024 24.39024 -13.463409999999998 24.39024 0 C 24.39024 13.46341 13.463409999999998 24.39024 0 24.39024 C -13.46341 24.39024 -24.39024 13.463409999999998 -24.39024 0 C -24.39024 -13.46341 -13.463409999999998 -24.39024 0 -24.39024 z" stroke-linecap="round" />
</g>
<g transform="matrix(1.21 0 0 1.47 437.75 406.84)" id="NNo0X-_pxBUWpmPc-oTyK"  >
<path style="stroke: none; stroke-width: 1; stroke-dasharray: none; stroke-linecap: butt; stroke-dashoffset: 0; stroke-linejoin: miter; stroke-miterlimit: 4; fill: rgb(255,175,90); fill-rule: nonzero; opacity: 1;" vector-effect="non-scaling-stroke"  transform=" translate(0, 0)" d="M -19.415 32.5 L 19.415 0 L -19.415 -32.5 L -1.3535499999999985 0 L -1.3535499999999985 0 L -1.3535499999999985 0 L -1.3535499999999985 0 z" stroke-linecap="round" />
</g>
<g transform="matrix(1 0 0 1 317.51 409.41)" id="JK68N-ptl2oI6DEqAAAhd"  >
<path style="stroke: rgb(255,175,90); stroke-width: 9; stroke-dasharray: none; stroke-linecap: butt; stroke-dashoffset: 0; stroke-linejoin: miter; stroke-miterlimit: 4; fill: rgb(255,255,255); fill-opacity: 0; fill-rule: nonzero; opacity: 1;" vector-effect="non-scaling-stroke"  transform=" translate(0, 0)" d="M -44.19019 -32.43464 L -34.71307 37.173199999999994 L -0.11758999999999986 37.173199999999994 L -0.11758999999999986 -37.17321000000001 L 44.19018 -37.17321000000001 L 34.56798 32.924829999999986" stroke-linecap="round" />
</g>
<g transform="matrix(1 0 0 1 316.46 408.52)" id="Mwbg7PLKdN2js7iN7ZTH6"  >
<path style="stroke: rgb(255,175,90); stroke-width: 9; stroke-dasharray: none; stroke-linecap: butt; stroke-dashoffset: 0; stroke-linejoin: miter; stroke-miterlimit: 4; fill: rgb(255,175,90); fill-rule: nonzero; opacity: 1;" vector-effect="non-scaling-stroke"  transform=" translate(0, 0)" d="M -70.26144 0 L 70.26144 0" stroke-linecap="round" />
</g>
<g transform="matrix(1 0 0 1 293.73 393.19)" id="JwKVzVCFRyKVd82Xuw_7d"  >
<path style="stroke: rgb(215,80,40); stroke-width: 16; stroke-dasharray: none; stroke-linecap: butt; stroke-dashoffset: 0; stroke-linejoin: miter; stroke-miterlimit: 4; fill: rgb(255,255,255); fill-opacity: 0; fill-rule: nonzero; opacity: 1;" vector-effect="non-scaling-stroke"  transform=" translate(0, 0)" d="M -105.11886 -55.46218 L -71.776 -50.93425 C -69.50484999999999 -50.62583 -67.67147 -48.92543 -67.19323 -46.68389 L -64.64214 -34.72683 L -61.83472 -23.645049999999998 L -45.3013 55.46219000000001 L 93.07405 55.46219000000001 L 105.11887 -23.52941 L -59.867119999999986 -23.645049999999998" stroke-linecap="round" />
</g>
</svg>