<svg width="1560" height="1440" viewBox="0 0 1560 1440" fill="none" xmlns="http://www.w3.org/2000/svg">
<rect x="1080" y="316" width="480" height="720" fill="#D9D9D9"/>
<rect y="243" width="1080" height="480" fill="#D9D9D9"/>
<line x1="150" y1="334" x2="150" y2="445" stroke="black" stroke-width="10"/>
<line x1="150" y1="515" x2="150" y2="626" stroke="black" stroke-width="10"/>
<rect x="600" y="3" width="480" height="240" fill="#D9D9D9"/>
<line x1="81" y1="334" x2="81" y2="445" stroke="black" stroke-width="10"/>
<line x1="5" y1="249" x2="5" y2="720" stroke="black" stroke-width="10"/>
<line x1="600" y1="245" y2="245" stroke="black" stroke-width="10"/>
<line x1="217" y1="334" x2="217" y2="445" stroke="black" stroke-width="10"/>
<line x1="217" y1="515" x2="217" y2="626" stroke="black" stroke-width="10"/>
<line x1="81" y1="515" x2="81" y2="626" stroke="black" stroke-width="10"/>
<rect x="225" y="717" width="868" height="720" fill="#D9D9D9"/>
<circle cx="649" cy="1130" r="10" fill="#755454"/>
<circle cx="1070.5" cy="331.5" r="2.5" fill="#9B4B4B"/>
<circle cx="648.5" cy="1129.5" r="2.5" fill="#9B4B4B"/>
<circle cx="1468.5" cy="964.5" r="2.5" fill="#9B4B4B"/>
<circle cx="72.5" cy="397.5" r="2.5" fill="#9B4B4B"/>
<path d="M612.264 1148.27H614.05L616.185 1152.13H616.27L618.405 1148.27H620.19L617.016 1153.74V1157H615.439V1153.74L612.264 1148.27ZM622.878 1157.13C622.239 1157.13 621.685 1156.99 621.216 1156.71C620.748 1156.42 620.384 1156.03 620.125 1155.53C619.87 1155.02 619.742 1154.43 619.742 1153.75C619.742 1153.08 619.87 1152.48 620.125 1151.98C620.384 1151.47 620.748 1151.07 621.216 1150.79C621.685 1150.51 622.239 1150.37 622.878 1150.37C623.517 1150.37 624.071 1150.51 624.54 1150.79C625.009 1151.07 625.371 1151.47 625.627 1151.98C625.885 1152.48 626.015 1153.08 626.015 1153.75C626.015 1154.43 625.885 1155.02 625.627 1155.53C625.371 1156.03 625.009 1156.42 624.54 1156.71C624.071 1156.99 623.517 1157.13 622.878 1157.13ZM622.887 1155.89C623.233 1155.89 623.523 1155.8 623.756 1155.61C623.989 1155.41 624.162 1155.15 624.276 1154.83C624.392 1154.51 624.451 1154.15 624.451 1153.75C624.451 1153.35 624.392 1152.99 624.276 1152.66C624.162 1152.34 623.989 1152.08 623.756 1151.88C623.523 1151.69 623.233 1151.59 622.887 1151.59C622.532 1151.59 622.236 1151.69 622 1151.88C621.767 1152.08 621.593 1152.34 621.476 1152.66C621.363 1152.99 621.306 1153.35 621.306 1153.75C621.306 1154.15 621.363 1154.51 621.476 1154.83C621.593 1155.15 621.767 1155.41 622 1155.61C622.236 1155.8 622.532 1155.89 622.887 1155.89ZM631.496 1154.25V1150.45H633.038V1157H631.543V1155.84H631.474C631.327 1156.2 631.084 1156.5 630.746 1156.74C630.411 1156.97 629.997 1157.09 629.506 1157.09C629.077 1157.09 628.697 1156.99 628.368 1156.8C628.041 1156.61 627.786 1156.33 627.601 1155.96C627.416 1155.59 627.324 1155.14 627.324 1154.62V1150.45H628.866V1154.38C628.866 1154.8 628.98 1155.13 629.207 1155.37C629.435 1155.62 629.733 1155.74 630.102 1155.74C630.33 1155.74 630.55 1155.68 630.763 1155.57C630.976 1155.46 631.151 1155.3 631.287 1155.08C631.426 1154.86 631.496 1154.58 631.496 1154.25ZM639.485 1157.13C639.07 1157.13 638.696 1157.06 638.364 1156.91C638.034 1156.76 637.773 1156.54 637.58 1156.25C637.39 1155.95 637.294 1155.59 637.294 1155.16C637.294 1154.79 637.363 1154.49 637.499 1154.25C637.635 1154.01 637.821 1153.81 638.057 1153.67C638.293 1153.52 638.559 1153.41 638.854 1153.34C639.152 1153.26 639.461 1153.21 639.779 1153.17C640.162 1153.13 640.473 1153.1 640.712 1153.07C640.951 1153.03 641.124 1152.98 641.232 1152.91C641.343 1152.84 641.398 1152.73 641.398 1152.59V1152.56C641.398 1152.24 641.303 1151.99 641.113 1151.81C640.922 1151.64 640.648 1151.55 640.29 1151.55C639.912 1151.55 639.613 1151.63 639.391 1151.8C639.172 1151.96 639.025 1152.16 638.948 1152.38L637.507 1152.18C637.621 1151.78 637.809 1151.45 638.07 1151.18C638.331 1150.91 638.651 1150.71 639.029 1150.57C639.407 1150.44 639.824 1150.37 640.282 1150.37C640.597 1150.37 640.911 1150.41 641.223 1150.48C641.536 1150.55 641.821 1150.68 642.08 1150.85C642.338 1151.01 642.546 1151.24 642.702 1151.53C642.861 1151.82 642.941 1152.18 642.941 1152.62V1157H641.458V1156.1H641.407C641.313 1156.28 641.181 1156.45 641.01 1156.61C640.843 1156.77 640.631 1156.89 640.375 1156.99C640.123 1157.09 639.826 1157.13 639.485 1157.13ZM639.885 1156C640.195 1156 640.463 1155.94 640.691 1155.82C640.918 1155.69 641.093 1155.53 641.215 1155.32C641.34 1155.12 641.402 1154.89 641.402 1154.65V1153.88C641.354 1153.92 641.272 1153.96 641.155 1153.99C641.042 1154.03 640.914 1154.06 640.772 1154.08C640.63 1154.11 640.489 1154.13 640.35 1154.15C640.211 1154.17 640.09 1154.19 639.988 1154.2C639.757 1154.23 639.551 1154.28 639.37 1154.35C639.188 1154.42 639.044 1154.52 638.939 1154.65C638.834 1154.78 638.782 1154.94 638.782 1155.14C638.782 1155.42 638.885 1155.64 639.093 1155.78C639.3 1155.93 639.564 1156 639.885 1156ZM644.492 1157V1150.45H645.988V1151.55H646.056C646.175 1151.17 646.38 1150.88 646.669 1150.67C646.962 1150.46 647.296 1150.36 647.671 1150.36C647.756 1150.36 647.851 1150.37 647.956 1150.37C648.064 1150.38 648.154 1150.39 648.225 1150.4V1151.82C648.159 1151.8 648.056 1151.78 647.914 1151.76C647.775 1151.74 647.64 1151.73 647.509 1151.73C647.228 1151.73 646.975 1151.79 646.75 1151.92C646.529 1152.04 646.354 1152.2 646.226 1152.41C646.098 1152.63 646.034 1152.87 646.034 1153.15V1157H644.492ZM651.878 1157.13C651.222 1157.13 650.655 1156.99 650.178 1156.72C649.703 1156.44 649.338 1156.05 649.082 1155.55C648.827 1155.05 648.699 1154.45 648.699 1153.77C648.699 1153.09 648.827 1152.5 649.082 1151.99C649.341 1151.48 649.702 1151.08 650.165 1150.8C650.628 1150.51 651.172 1150.37 651.797 1150.37C652.2 1150.37 652.581 1150.43 652.939 1150.57C653.3 1150.69 653.618 1150.89 653.893 1151.16C654.172 1151.43 654.391 1151.78 654.55 1152.19C654.709 1152.61 654.788 1153.1 654.788 1153.68V1154.15H649.423V1153.11H653.31C653.307 1152.81 653.243 1152.55 653.118 1152.32C652.993 1152.09 652.818 1151.9 652.594 1151.77C652.372 1151.64 652.114 1151.57 651.818 1151.57C651.503 1151.57 651.226 1151.65 650.987 1151.8C650.749 1151.95 650.563 1152.15 650.429 1152.4C650.298 1152.64 650.232 1152.91 650.229 1153.2V1154.11C650.229 1154.49 650.298 1154.82 650.438 1155.09C650.577 1155.36 650.771 1155.57 651.021 1155.71C651.271 1155.86 651.564 1155.93 651.899 1155.93C652.124 1155.93 652.327 1155.89 652.509 1155.83C652.69 1155.77 652.848 1155.67 652.982 1155.55C653.115 1155.42 653.216 1155.27 653.284 1155.08L654.724 1155.24C654.634 1155.62 654.46 1155.96 654.205 1156.24C653.952 1156.52 653.628 1156.74 653.233 1156.9C652.838 1157.05 652.386 1157.13 651.878 1157.13ZM660.613 1153.16V1157H659.07V1148.27H660.578V1151.57H660.655C660.809 1151.2 661.046 1150.91 661.367 1150.69C661.691 1150.48 662.103 1150.37 662.603 1150.37C663.057 1150.37 663.453 1150.46 663.792 1150.65C664.13 1150.85 664.391 1151.12 664.576 1151.49C664.763 1151.86 664.857 1152.3 664.857 1152.83V1157H663.314V1153.07C663.314 1152.63 663.201 1152.29 662.973 1152.04C662.749 1151.8 662.434 1151.67 662.027 1151.67C661.755 1151.67 661.51 1151.73 661.294 1151.85C661.081 1151.97 660.914 1152.14 660.792 1152.36C660.672 1152.58 660.613 1152.85 660.613 1153.16ZM669.327 1157.13C668.671 1157.13 668.104 1156.99 667.627 1156.72C667.152 1156.44 666.787 1156.05 666.532 1155.55C666.276 1155.05 666.148 1154.45 666.148 1153.77C666.148 1153.09 666.276 1152.5 666.532 1151.99C666.79 1151.48 667.151 1151.08 667.614 1150.8C668.077 1150.51 668.621 1150.37 669.246 1150.37C669.65 1150.37 670.03 1150.43 670.388 1150.57C670.749 1150.69 671.067 1150.89 671.343 1151.16C671.621 1151.43 671.84 1151.78 671.999 1152.19C672.158 1152.61 672.238 1153.1 672.238 1153.68V1154.15H666.873V1153.11H670.759C670.756 1152.81 670.692 1152.55 670.567 1152.32C670.442 1152.09 670.267 1151.9 670.043 1151.77C669.821 1151.64 669.563 1151.57 669.267 1151.57C668.952 1151.57 668.675 1151.65 668.436 1151.8C668.198 1151.95 668.012 1152.15 667.878 1152.4C667.748 1152.64 667.681 1152.91 667.678 1153.2V1154.11C667.678 1154.49 667.748 1154.82 667.887 1155.09C668.026 1155.36 668.221 1155.57 668.471 1155.71C668.721 1155.86 669.013 1155.93 669.348 1155.93C669.573 1155.93 669.776 1155.89 669.958 1155.83C670.14 1155.77 670.297 1155.67 670.431 1155.55C670.564 1155.42 670.665 1155.27 670.733 1155.08L672.174 1155.24C672.083 1155.62 671.909 1155.96 671.654 1156.24C671.401 1156.52 671.077 1156.74 670.682 1156.9C670.287 1157.05 669.836 1157.13 669.327 1157.13ZM673.543 1157V1150.45H675.038V1151.55H675.107C675.226 1151.17 675.43 1150.88 675.72 1150.67C676.013 1150.46 676.347 1150.36 676.722 1150.36C676.807 1150.36 676.902 1150.37 677.007 1150.37C677.115 1150.38 677.205 1150.39 677.276 1150.4V1151.82C677.21 1151.8 677.107 1151.78 676.964 1151.76C676.825 1151.74 676.69 1151.73 676.56 1151.73C676.278 1151.73 676.026 1151.79 675.801 1151.92C675.58 1152.04 675.405 1152.2 675.277 1152.41C675.149 1152.63 675.085 1152.87 675.085 1153.15V1157H673.543ZM680.929 1157.13C680.272 1157.13 679.706 1156.99 679.228 1156.72C678.754 1156.44 678.389 1156.05 678.133 1155.55C677.877 1155.05 677.75 1154.45 677.75 1153.77C677.75 1153.09 677.877 1152.5 678.133 1151.99C678.392 1151.48 678.752 1151.08 679.216 1150.8C679.679 1150.51 680.223 1150.37 680.848 1150.37C681.251 1150.37 681.632 1150.43 681.99 1150.57C682.35 1150.69 682.669 1150.89 682.944 1151.16C683.223 1151.43 683.441 1151.78 683.6 1152.19C683.76 1152.61 683.839 1153.1 683.839 1153.68V1154.15H678.474V1153.11H682.36C682.358 1152.81 682.294 1152.55 682.169 1152.32C682.044 1152.09 681.869 1151.9 681.645 1151.77C681.423 1151.64 681.164 1151.57 680.869 1151.57C680.554 1151.57 680.277 1151.65 680.038 1151.8C679.799 1151.95 679.613 1152.15 679.48 1152.4C679.349 1152.64 679.282 1152.91 679.279 1153.2V1154.11C679.279 1154.49 679.349 1154.82 679.488 1155.09C679.627 1155.36 679.822 1155.57 680.072 1155.71C680.322 1155.86 680.615 1155.93 680.95 1155.93C681.174 1155.93 681.377 1155.89 681.559 1155.83C681.741 1155.77 681.899 1155.67 682.032 1155.55C682.166 1155.42 682.267 1155.27 682.335 1155.08L683.775 1155.24C683.684 1155.62 683.511 1155.96 683.255 1156.24C683.002 1156.52 682.679 1156.74 682.284 1156.9C681.889 1157.05 681.437 1157.13 680.929 1157.13Z" fill="black"/>
</svg>
